<svg width="392" height="131" viewBox="0 0 392 131" fill="none" xmlns="http://www.w3.org/2000/svg">
<path opacity="0.95" d="M12.5494 61.9142C6.76509 61.9142 4.07031 60.5984 4.07031 53.7194V27.5874C4.07031 20.7084 6.77036 19.3926 12.5494 19.3926H35.755V26.9664H14.7863C12.4757 26.9664 12.0125 27.4295 12.0125 29.6717V51.7035C12.0125 53.9457 12.4757 54.4088 14.7863 54.4088H35.755V61.9089H12.5494V61.9142Z" fill="black"/>
<path opacity="0.95" d="M51.2486 61.9142C45.4643 61.9142 42.7695 60.5984 42.7695 53.7194V27.5874C42.7695 20.7084 45.4696 19.3926 51.2486 19.3926H69.9857C75.77 19.3926 78.4648 20.7084 78.4648 27.5874V53.7194C78.4648 60.5984 75.7647 61.9142 69.9857 61.9142H51.2486ZM70.6015 29.6769C70.6015 27.4348 70.1383 26.9716 67.8278 26.9716H53.4855C51.1749 26.9716 50.7117 27.4348 50.7117 29.6769V51.7088C50.7117 53.9509 51.1749 54.4141 53.4855 54.4141H67.8278C70.1383 54.4141 70.6015 53.9509 70.6015 51.7088V29.6769Z" fill="black"/>
<path opacity="0.95" d="M95.5103 61.9152C89.726 61.9152 87.0312 60.5994 87.0312 53.7204V27.5884C87.0312 20.7094 89.7313 19.3936 95.5103 19.3936H114.863V0.0722656H122.726V53.7256C122.726 60.6047 120.026 61.9205 114.247 61.9205H95.5103V61.9152ZM114.863 26.9726H97.7472C95.4366 26.9726 94.9735 27.4358 94.9735 29.6779V51.7098C94.9735 53.9519 95.4366 54.4151 97.7472 54.4151H112.089C114.4 54.4151 114.863 53.9519 114.863 51.7098V26.9726Z" fill="black"/>
<path opacity="0.95" d="M139.838 61.9142C134.054 61.9142 131.359 60.5984 131.359 53.7194V27.5874C131.359 20.7084 134.059 19.3926 139.838 19.3926H158.576C164.36 19.3926 167.055 20.7084 167.055 27.5874V37.2507C167.055 44.1298 164.355 45.4456 158.576 45.4456H139.302V51.7088C139.302 54.3352 139.996 54.4141 143.386 54.4141H165.36V61.9142H139.838ZM159.191 29.6769C159.191 27.4348 158.728 26.9716 156.418 26.9716H142.075C139.765 26.9716 139.302 27.4348 139.302 29.6769V37.9507H156.418C158.728 37.9507 159.191 37.4876 159.191 35.2454V29.6769Z" fill="black"/>
<path d="M192.5 61.9152V26.8989H185.484V19.3252H192.5V8.26711C192.5 1.38807 195.2 0.0722656 200.979 0.0722656H212.311V7.64605H203.211C200.9 7.64605 200.437 8.10922 200.437 10.3514V19.3199H212.311V26.8937H200.437V61.9152H192.495H192.5Z" fill="black"/>
<path d="M226.268 61.9142C220.484 61.9142 217.789 60.5984 217.789 53.7194V27.5874C217.789 20.7084 220.489 19.3926 226.268 19.3926H245.005C250.789 19.3926 253.484 20.7084 253.484 27.5874V53.7194C253.484 60.5984 250.784 61.9142 245.005 61.9142H226.268ZM245.621 29.6769C245.621 27.4348 245.158 26.9716 242.847 26.9716H228.505C226.194 26.9716 225.731 27.4348 225.731 29.6769V51.7088C225.731 53.9509 226.194 54.4141 228.505 54.4141H242.847C245.158 54.4141 245.621 53.9509 245.621 51.7088V29.6769Z" fill="black"/>
<path d="M262.117 61.9148V27.5933C262.117 20.7142 264.817 19.3984 270.596 19.3984H287.944V26.9722H272.833C270.523 26.9722 270.059 27.4354 270.059 29.6775V61.9148H262.117Z" fill="black"/>
<path d="M314.62 61.9148C308.835 61.9148 306.141 60.599 306.141 53.7199V43.5145C306.141 36.6355 308.841 35.3197 314.62 35.3197H333.894V29.6775C333.894 27.4354 333.43 26.9722 331.12 26.9722H306.988V19.3984H333.357C339.141 19.3984 341.836 20.7142 341.836 27.5933V53.7252C341.836 60.6043 339.136 61.9201 333.357 61.9201H314.62V61.9148ZM333.894 42.8988H316.778C314.467 42.8988 314.004 43.3619 314.004 45.6041V51.7094C314.004 53.9515 314.467 54.4147 316.778 54.4147H331.12C333.43 54.4147 333.894 53.9515 333.894 51.7094V42.8988Z" fill="black"/>
<path d="M361.479 61.8429C355.695 61.8429 353 60.5271 353 53.6481V0H360.942V51.6428C360.942 53.8849 361.405 54.3481 363.716 54.3481H369.732V61.8482H361.484L361.479 61.8429Z" fill="black"/>
<path d="M383.374 61.8429C377.589 61.8429 374.895 60.5271 374.895 53.6481V0H382.837V51.6428C382.837 53.8849 383.3 54.3481 385.61 54.3481H391.626V61.8482H383.379L383.374 61.8429Z" fill="black"/>
<path d="M26.432 125.8H5.504V122.92H27.008C29.888 122.92 30.272 121.576 30.272 119.72V113H10.88C6.08 113 3.84 111.912 3.84 106.216V84.584C3.84 78.888 6.08 77.8 10.88 77.8H26.432C31.232 77.8 33.472 78.888 33.472 84.584V119.016C33.472 124.712 31.232 125.8 26.432 125.8ZM30.272 110.12V83.88C30.272 82.024 29.888 80.68 27.008 80.68H10.304C7.424 80.68 7.04 82.024 7.04 83.88V106.92C7.04 108.776 7.424 110.12 10.304 110.12H30.272ZM44.479 113H41.279V84.584C41.279 78.888 43.519 77.8 48.319 77.8H62.719V80.68H47.743C44.863 80.68 44.479 82.024 44.479 83.88V113ZM89.6195 113H74.0675C69.2675 113 67.0275 111.912 67.0275 106.216V84.584C67.0275 78.888 69.2675 77.8 74.0675 77.8H89.6195C94.4195 77.8 96.6595 78.888 96.6595 84.584V106.216C96.6595 111.912 94.4195 113 89.6195 113ZM93.4595 106.92V83.88C93.4595 82.024 93.0755 80.68 90.1955 80.68H73.4915C70.6115 80.68 70.2275 82.024 70.2275 83.88V106.92C70.2275 108.776 70.6115 110.12 73.4915 110.12H90.1955C93.0755 110.12 93.4595 108.776 93.4595 106.92ZM126.996 113H111.444C106.644 113 104.404 111.912 104.404 106.216V77.8H107.604V106.92C107.604 108.776 107.988 110.12 110.868 110.12H127.572C130.452 110.12 130.836 108.776 130.836 106.92V77.8H134.036V106.216C134.036 111.912 131.796 113 126.996 113ZM164.434 113H145.042V125.8H141.842V84.584C141.842 78.888 144.082 77.8 148.882 77.8H164.434C169.234 77.8 171.474 78.888 171.474 84.584V106.216C171.474 111.912 169.234 113 164.434 113ZM168.274 106.92V83.88C168.274 82.024 167.89 80.68 165.01 80.68H148.306C145.426 80.68 145.042 82.024 145.042 83.88V110.12H165.01C167.89 110.12 168.274 108.776 168.274 106.92Z" fill="black"/>
<path d="M192 79H212.4H216L192 103V79Z" fill="#EA1F27" stroke="#EA1F27" stroke-width="3" stroke-linejoin="round"/>
</svg>
